{"title":"Torchwood.S04E10.[Miracle.Day].HDTV.272p.H264.AAC-k3n.m4v","uid":6664897,"size":121563236,"categoryP":"video","categoryS":"tv_shows","magnet":"?xt=urn:btih:4bd562c4943928b406c69b434af31bb1082b62cd&amp;dn=Torchwood.S04E10.%5BMiracle.Day%5D.HDTV.272p.H264.AAC-k3n.m4v&amp;tr=udp%3A%2F%2Ftracker.openbittorrent.com%3A80&amp;tr=udp%3A%2F%2Fopen.demonii.com%3A1337&amp;tr=udp%3A%2F%2Ftracker.coppersurfer.tk%3A6969&amp;tr=udp%3A%2F%2Fexodus.desync.com%3A6969","seeders":1,"leechers":0,"uploader":"k3nd00d","files":-1,"time":1315648179,"description":"Episode title: The Blood Line\n\n\n\nGeneral\nFormat                           : MPEG-4\nFormat profile                   : Base Media / Version 2\nCodec ID                         : mp42\nFile size                        : 116 MiB\nDuration                         : 56mn 6s\nOverall bit rate                 : 289 Kbps\n\nVideo\nID                               : 1\nFormat                           : AVC\nFormat/Info                      : Advanced Video Codec\nFormat profile                   : &lt;a class=&quot;__cf_email__&quot; href=&quot;/cdn-cgi/l/email-protection&quot; data-cfemail=&quot;46042735232a2f2823060a746877&quot;&gt;[email&amp;#160;protected]&lt;/a&gt;&lt;script data-cfhash='f9e31' type=&quot;text/javascript&quot;&gt;\n/* &lt;![CDATA[ */!function(){try{var t=&quot;currentScript&quot;in document?document.currentScript:function(){for(var t=document.getElementsByTagName(&quot;script&quot;),e=t.length;e--;)if(t[e].getAttribute(&quot;data-cfhash&quot;))return t[e]}();if(t&amp;&amp;t.previousSibling){var e,r,n,i,c=t.previousSibling,a=c.getAttribute(&quot;data-cfemail&quot;);if(a){for(e=&quot;&quot;,r=parseInt(a.substr(0,2),16),n=2;a.length-n;n+=2)i=parseInt(a.substr(n,2),16)^r,e+=String.fromCharCode(i);e=document.createTextNode(e),c.parentNode.replaceChild(e,c)}t.parentNode.removeChild(t);}}catch(u){}}()/* ]]&gt; */&lt;/script&gt;\nFormat settings, CABAC           : No\nFormat settings, ReFrames        : 2 frames\nCodec ID                         : avc1\nCodec ID/Info                    : Advanced Video Coding\nDuration                         : 56mn 6s\nBit rate mode                    : Variable\nBit rate                         : 240 Kbps\nWidth                            : 480 pixels\nHeight                           : 272 pixels\nDisplay aspect ratio             : 16:9\nFrame rate mode                  : Variable\nFrame rate                       : 23.976 fps\nMinimum frame rate               : 23.974 fps\nMaximum frame rate               : 23.981 fps\nColor space                      : YUV\nChroma subsampling               : 4:2:0\nBit depth                        : 8 bits\nScan type                        : Progressive\nBits/(Pixel*Frame)               : 0.077\nStream size                      : 95.5 MiB (82%)\nWriting library                  : x264 core 79\n\nAudio\nID                               : 2\nFormat                           : AAC\nFormat/Info                      : Advanced Audio Codec\nFormat profile                   : LC\nCodec ID                         : 40\nDuration                         : 56mn 6s\nBit rate mode                    : Variable\nBit rate                         : 48.0 Kbps\nMaximum bit rate                 : 63.8 Kbps\nChannel(s)                       : 2 channels\nChannel positions                : Front: L R\nSampling rate                    : 24.0 KHz\nCompression mode                 : Lossy\nStream size                      : 19.3 MiB (17%)\n","torrent":{"xt":"urn:btih:4bd562c4943928b406c69b434af31bb1082b62cd","amp;dn":"Torchwood.S04E10.%5BMiracle.Day%5D.HDTV.272p.H264.AAC-k3n.m4v","amp;tr":["udp%3A%2F%2Ftracker.openbittorrent.com%3A80","udp%3A%2F%2Fopen.demonii.com%3A1337","udp%3A%2F%2Ftracker.coppersurfer.tk%3A6969","udp%3A%2F%2Fexodus.desync.com%3A6969"],"infoHash":"4bd562c4943928b406c69b434af31bb1082b62cd","infoHashBuffer":{"type":"Buffer","data":[75,213,98,196,148,57,40,180,6,198,155,67,74,243,27,177,8,43,98,205]},"announce":[],"urlList":[]}}